<?xml version="1.0" encoding="utf-8"?>
<!-- Generator: Adobe Illustrator 24.0.0, SVG Export Plug-In . SVG Version: 6.00 Build 0)  -->
<svg version="1.1" id="Layer_1" xmlns="http://www.w3.org/2000/svg" xmlns:xlink="http://www.w3.org/1999/xlink" x="0px" y="0px"
	 viewBox="0 0 115.5 493.1" style="enable-background:new 0 0 115.5 493.1;" xml:space="preserve">
<style type="text/css">
	.st0{fill:none;stroke:#FFFFFF;stroke-width:10;stroke-miterlimit:10;}
	.st1{fill:var(--accent-color);}
</style>
<g>
	<path class="st0" d="M57.8,322.5C28.4,322.5,5,298.6,5,269.8c0-1.2,0-2.5,0.1-3.7L8.2,231l2.7-29.9c1.2-17.3,15.6-30.8,33-30.8
		h27.7c17.4,0,31.8,13.5,33,30.8l2.6,29.9l3.1,35.1C112.5,296.6,88.3,322.5,57.8,322.5z"/>
	<g>
		<path class="st1" d="M47.2,239.5v-33c0-5.9,4.7-10.6,10.6-10.6h0c5.9,0,10.6,4.7,10.6,10.6v33c0,5.9-4.7,10.6-10.6,10.6h0
			C51.9,250.1,47.2,245.3,47.2,239.5z"/>
	</g>
</g>
<g>
	<path class="st0" d="M57.8,157.2C28.4,157.2,5,133.3,5,104.5c0-1.2,0-2.5,0.1-3.7l3.1-35.1l2.7-29.9C12.1,18.5,26.5,5,43.9,5h27.7
		c17.4,0,31.8,13.5,33,30.8l2.6,29.9l3.1,35.1C112.5,131.2,88.3,157.2,57.8,157.2z"/>
	<g>
		<path class="st1" d="M62.8,60.1v-31c0-4.4,3.6-8,8-8h0c10.2,0,18.8,8,19.5,18.2l1.3,20.3c0.3,4.6-3.4,8.5-8,8.5H70.8
			C66.3,68.2,62.8,64.6,62.8,60.1z"/>
	</g>
</g>
<g>
	<path class="st0" d="M57.8,488.1C28.4,488.1,5,464.2,5,435.4c0-1.2,0-2.5,0.1-3.7l3.1-35.1l2.7-29.9c1.2-17.3,15.6-30.8,33-30.8
		h27.7c17.4,0,31.8,13.5,33,30.8l2.6,29.9l3.1,35.1C112.5,462.2,88.3,488.1,57.8,488.1z"/>
	<g>
		<path class="st1" d="M31.9,399.1c-4.6,0-8.3-3.9-8-8.5l1.3-20.3C25.9,360,34.5,352,44.7,352h0c4.4,0,8,3.6,8,8v31c0,4.4-3.6,8-8,8
			H31.9z"/>
	</g>
</g>
</svg>
