<svg xmlns="http://www.w3.org/2000/svg" viewBox="0 0 371.59 95.48"><defs><style>.cls-1{fill:#fff;}</style></defs><title>POLLUX</title><g id="Layer_2" data-name="Layer 2"><g id="Layer_1-2" data-name="Layer 1"><path class="cls-1" d="M50.32,0Q64.39,0,70.5,6.36T76.62,25.2v9.05q0,12.48-6.12,18.84T50.32,59.45H18.72V91.63A2.38,2.38,0,0,1,16,94.32H2.81C.94,94.32,0,93.42,0,91.63v-88Q0,0,3.67,0ZM18.72,43.3H46.53c4.16,0,7.09-.89,8.8-2.69s2.57-4.52,2.57-8.19V27.77c0-3.67-.85-6.4-2.57-8.2s-4.64-2.69-8.8-2.69H20.31q-1.59,0-1.59,1.47Z"/><path class="cls-1" d="M126.39,31.5a55,55,0,0,1,13.06,1.33A19.76,19.76,0,0,1,148,37a15.77,15.77,0,0,1,4.57,7.28A36,36,0,0,1,153.91,55V71.63a36,36,0,0,1-1.39,10.69A15.81,15.81,0,0,1,148,89.61a19.16,19.16,0,0,1-8.5,4.1A56.93,56.93,0,0,1,126.39,95H111.66a56.82,56.82,0,0,1-13.12-1.28,19.13,19.13,0,0,1-8.44-4.1,15.89,15.89,0,0,1-4.57-7.29,36.3,36.3,0,0,1-1.39-10.69V55a36.37,36.37,0,0,1,1.39-10.7A15.85,15.85,0,0,1,90.1,37a19.74,19.74,0,0,1,8.44-4.17,54.93,54.93,0,0,1,13.12-1.33ZM100.68,68.74a26.87,26.87,0,0,0,.58,6.13,7.93,7.93,0,0,0,2,3.87,8.34,8.34,0,0,0,3.87,2.08,24.41,24.41,0,0,0,6.13.64h11.49a25,25,0,0,0,6.24-.64,8.37,8.37,0,0,0,3.88-2.08,8,8,0,0,0,2-3.87,26.87,26.87,0,0,0,.58-6.13v-11a26.17,26.17,0,0,0-.58-6,8.36,8.36,0,0,0-2-3.93A7.71,7.71,0,0,0,131,45.73a27.43,27.43,0,0,0-6.24-.58H113.28a26.81,26.81,0,0,0-6.13.58,7.68,7.68,0,0,0-3.87,2.08,8.27,8.27,0,0,0-2,3.93,26.17,26.17,0,0,0-.58,6Z"/><path class="cls-1" d="M169.78,6.88,180.89,4a3.61,3.61,0,0,1,4.61,3.35V92a3.56,3.56,0,0,1-3.64,3.48H170.74A3.56,3.56,0,0,1,167.1,92V10.23A3.5,3.5,0,0,1,169.78,6.88Z"/><path class="cls-1" d="M200.37,6.88,211.48,4a3.61,3.61,0,0,1,4.61,3.35V92a3.56,3.56,0,0,1-3.64,3.48H201.33A3.56,3.56,0,0,1,197.69,92V10.23A3.5,3.5,0,0,1,200.37,6.88Z"/><path class="cls-1" d="M241.93,31.5c1.69,0,2.54.89,2.54,2.66V67.58a33.41,33.41,0,0,0,.47,6.13,7.88,7.88,0,0,0,1.73,3.87,7.07,7.07,0,0,0,3.59,2.08,23.52,23.52,0,0,0,6.12.64H268.1a25,25,0,0,0,6.25-.64,8.2,8.2,0,0,0,3.87-2.08,7.88,7.88,0,0,0,2-3.87,26.81,26.81,0,0,0,.58-6.13V34.16c0-1.77.85-2.66,2.55-2.66H294.7c1.69,0,2.54.89,2.54,2.66V71.63a36,36,0,0,1-1.39,10.69,15.79,15.79,0,0,1-4.56,7.29,19.21,19.21,0,0,1-8.5,4.1A57.08,57.08,0,0,1,269.72,95H255.46a56.92,56.92,0,0,1-13.13-1.28,19.18,19.18,0,0,1-8.44-4.1,15.79,15.79,0,0,1-4.56-7.29,36,36,0,0,1-1.39-10.69V34.16a2.35,2.35,0,0,1,2.66-2.66Z"/><path class="cls-1" d="M370.75,91.72a1.3,1.3,0,0,1-.85,2.12l-13.54,1.63h-.06a3.13,3.13,0,0,1-1.59-.34,3.65,3.65,0,0,1-1-.93L338.49,75.94a1.3,1.3,0,0,0-2,0L320.81,94.21a3.92,3.92,0,0,1-1,.93,2.91,2.91,0,0,1-1.54.34H305.07c-.85,0-1.35-.34-1.5-1a2.29,2.29,0,0,1,.5-2l24.77-29.11a1.3,1.3,0,0,0,0-1.68c-3.13-3.71-15.78-18.71-20.94-25a2,2,0,0,1,1.28-3.19L321.78,32a2.64,2.64,0,0,1,1.38.34,4.53,4.53,0,0,1,1.08,1L338.07,49.6a1.3,1.3,0,0,0,2,0l14.27-16.23a3.43,3.43,0,0,1,1-1,2.85,2.85,0,0,1,1.54-.35h13.21a1.33,1.33,0,0,1,1.49,1.1,2.37,2.37,0,0,1-.49,2L347.63,62.61a1.29,1.29,0,0,0,0,1.68C351.06,68.35,366,85.94,370.75,91.72Z"/></g></g></svg>